# xmcd
#
# Track frame offsets: 
#        150
#        11354
#        23255
#        34202
#        46378
#        58194
#        69424
#        79773
#        90711
#        101163
#        110748
#        121007
#        131222
#        141348
#        151877
#        163043
#        173808
#        183962
#        194085
#        204668
#        215282
#        225915
#        235813
#        245065
#        254965
#        267735
#
# Disc length: 3710 seconds
#
# Revision: 0
# Processed by: cddbd v1.5.2PL0 Copyright (c) Steve Scherf et al.
# Submitted via: ExactAudioCopyFreeDBPlugin 1.0
#
DISCID=790e7c1a
DTITLE=Fats Domino - 2003 - Rockin' On Rampart [CD1]
DYEAR=2003
DGENRE=R&B
TTITLE0=Detroit City Blues
TTITLE1=Fat Man
TTITLE2=Hide Away Blues
TTITLE3=She's Away Blues
TTITLE4=Brand New Baby
TTITLE5=Little Bee
TTITLE6=Boogie Woogie Baby
TTITLE7=Hey! La Bas
TTITLE8=Korea Blues
TTITLE9=Every Night About This Time
TTITLE10=Careless Love
TTITLE11=Tired Of Crying
TTITLE12=What's The Matter Baby
TTITLE13=Don't Lie To Me
TTITLE14=Rockin' Chair
TTITLE15=Sometimes I Wonder
TTITLE16=Right From Wrong
TTITLE17=You Know I Miss You
TTITLE18=I'll Be Gone
TTITLE19=No, No Baby
TTITLE20=Reeling And Rocking
TTITLE21=Goin' Home
TTITLE22=How Long
TTITLE23=Poor Poor Me
TTITLE24=Trust In Me
TTITLE25=Dreaming
EXTD=
EXTT0=
EXTT1=
EXTT2=
EXTT3=
EXTT4=
EXTT5=
EXTT6=
EXTT7=
EXTT8=
EXTT9=
EXTT10=
EXTT11=
EXTT12=
EXTT13=
EXTT14=
EXTT15=
EXTT16=
EXTT17=
EXTT18=
EXTT19=
EXTT20=
EXTT21=
EXTT22=
EXTT23=
EXTT24=
EXTT25=
PLAYORDER=
